<svg width="220" height="144" viewBox="0 0 220 144" fill="none" xmlns="http://www.w3.org/2000/svg">
<path d="M197.336 57.9385C195.76 60.1449 194.069 62.2666 192.271 64.2951C193.533 56.7892 192.501 49.3831 189.412 43.3885C187.899 40.3482 185.786 37.6462 183.199 35.4459C180.611 33.2445 177.603 31.591 174.358 30.5854C166.997 28.2715 157.811 29.6488 149.254 32.5013C140.992 35.2554 137.826 33.0054 137.133 32.2593L137.129 32.2556C136.101 31.1601 135.811 29.3645 136.707 27.156C138.065 23.8105 142.282 19.6082 150.027 18.4206L151.375 18.2534C151.376 18.2532 151.377 18.2531 151.379 18.2529C151.87 18.1964 152.382 18.1584 152.906 18.1393L152.921 18.1387L155.291 18.0187C155.627 18.0017 155.933 17.816 156.103 17.5249C156.273 17.2337 156.286 16.8764 156.135 16.5745L155.075 14.4445L155.073 14.4399C153.445 11.2092 152.784 7.57736 153.17 3.9807L153.521 2.19302C153.579 1.8996 153.502 1.59575 153.312 1.36479C153.122 1.13383 152.839 1 152.54 1H150.68C138.899 1 125.966 8.30042 119.164 18.741C114.007 26.5603 113 35.0639 116.311 42.6853C117.474 45.4142 119.149 47.8766 121.229 49.9476L106.387 45.8363C106.243 45.7965 106.093 45.7893 105.946 45.8152L105.615 45.8736C105.114 45.9528 100.082 46.7945 94.1128 48.4332C88.3323 50.02 81.5102 52.396 77.1281 55.6396C74.8028 54.9038 69.6385 53.3189 63.9124 51.785C55.7322 49.5313 48.0261 51.4501 37.5434 57.9999C32.7687 60.9295 25.6665 66.7692 19.3713 72.1897C15.7252 75.3291 12.3628 78.3161 9.82821 80.5676C7.95301 82.2334 6.53099 83.4966 5.78258 84.1211C3.26401 86.0835 1.56459 88.9123 1.01493 92.0579C1.00499 92.1147 1 92.1723 1 92.23V92.7C1 92.9343 1.08228 93.1612 1.23247 93.341L39.2825 138.901C39.5834 139.261 40.0943 139.364 40.5109 139.147L41.8009 138.477L41.8053 138.475C54.3792 131.866 68.6131 132.728 79.8055 135.307C85.3887 136.593 90.1791 138.299 93.573 139.683C95.2691 140.375 96.6143 140.985 97.5328 141.422C97.992 141.64 98.3444 141.814 98.5805 141.933C98.6986 141.993 98.7876 142.038 98.8463 142.069L98.9115 142.103L98.9268 142.111L98.9301 142.113L98.9304 142.113C99.075 142.19 99.2362 142.23 99.4 142.23H122.94C123.056 142.23 123.171 142.21 123.281 142.17L123.281 142.17L123.283 142.169L123.294 142.165L123.338 142.15C123.378 142.136 123.437 142.114 123.517 142.087C123.675 142.031 123.911 141.95 124.218 141.848C124.831 141.643 125.725 141.354 126.843 141.019C129.081 140.348 132.212 139.493 135.78 138.758C142.959 137.281 151.751 136.325 158.628 138.195C158.919 138.274 159.231 138.217 159.476 138.04C159.721 137.863 159.873 137.584 159.889 137.282L158.89 137.23C159.889 137.282 159.889 137.282 159.889 137.282L159.889 137.281L159.889 137.278L159.89 137.265L159.892 137.214L159.903 137.014L159.943 136.253C159.977 135.596 160.027 134.654 160.087 133.517C160.207 131.241 160.37 128.181 160.539 125.042C160.877 118.753 161.238 112.177 161.337 110.929C161.372 110.493 161.278 110.051 161.147 109.653C161.012 109.245 160.816 108.818 160.587 108.392C160.431 108.1 160.254 107.799 160.062 107.493C162.293 107.666 164.643 107.77 167.08 107.77C188.269 107.77 204.867 99.763 214.836 84.5481L214.838 84.5452L218.838 78.3952C219.095 78.0001 219.041 77.4792 218.709 77.1449C218.377 76.8107 217.856 76.7539 217.46 77.0086L211.31 80.9584C203.216 86.1519 193.97 89.2431 184.41 89.9738C191.852 82.9309 197.692 72.9306 201.831 60.2099C201.831 60.2097 201.831 60.2096 201.831 60.2094L204.931 50.6999C205.084 50.231 204.872 49.7206 204.432 49.4978C203.992 49.275 203.455 49.4064 203.167 49.8073L197.337 57.9372L197.336 57.9385Z" fill="#9C182F" stroke="white" stroke-width="2" stroke-linejoin="round"/>
<path d="M40.05 138.26L41.34 137.59C42.5306 136.959 43.7522 136.388 45 135.88C43.7522 136.388 42.5306 136.959 41.34 137.59L40.05 138.26ZM127.3 87.38C126.635 88.6644 126.173 90.0441 125.93 91.47C129.14 93.06 140.27 98.07 153.09 98.07C161.862 98.2284 170.447 95.5293 177.55 90.38C183.55 85.98 188.66 79.67 192.79 71.55C171 104.69 140.35 94.09 127.3 87.38ZM120.54 41.19C124.21 48.85 131.54 52.11 137.05 53.5C141.841 54.6388 146.788 54.9767 151.69 54.5V54.45C151.69 54.45 151.85 54.45 152.13 54.45C153.04 54.36 153.93 54.24 154.82 54.1C155.834 53.9352 156.79 53.5183 157.601 52.8875C158.412 52.2567 159.051 51.4323 159.46 50.49C159.754 52.2373 159.613 54.03 159.05 55.71C159.899 56.4448 160.887 57.0008 161.956 57.3444C163.025 57.6881 164.152 57.8124 165.27 57.71C162.58 59.3 159.82 58.23 158.09 57.16C157.381 57.8447 156.453 58.2588 155.47 58.33C155.818 59.5938 156.415 60.7756 157.225 61.8058C158.036 62.8361 159.044 63.6943 160.19 64.33C156.12 64.09 154.11 60.65 153.19 58.4C152.29 58.4 151.26 58.4 150.12 58.4H149.99C148.634 60.7678 148.275 63.577 148.99 66.21C148.048 65.1593 147.437 63.8544 147.232 62.4582C147.028 61.0621 147.239 59.6367 147.84 58.36C146.3 58.3 145.17 58.21 145.03 58.2C144.55 58.2 144.03 58.11 143.45 58.04C142.377 58.8826 141.492 59.9409 140.853 61.1466C140.214 62.3523 139.835 63.6787 139.74 65.04C139.292 63.8298 139.168 62.524 139.378 61.251C139.589 59.978 140.127 58.7817 140.94 57.78C139.73 57.67 138.52 57.55 137.34 57.41C135.543 58.4926 134.243 60.238 133.72 62.27C133.551 61.3626 133.598 60.4283 133.857 59.5424C134.116 58.6566 134.579 57.8439 135.21 57.17L134.37 57.06H134.13L133.53 56.98H133.28L132.69 56.89H132.5L131.83 56.79H131.74C130.67 56.63 129.74 56.47 128.84 56.3C123.92 58.56 120.84 65.05 120.34 66.3C120.34 66.3 132.81 75.3 132.97 75.47C134.47 76.62 133.76 78.79 133.76 78.79L133.93 78.88H133.98L134.14 78.96L134.26 79.02L134.41 79.09L134.62 79.19H134.71L135.07 79.35H135.14L135.48 79.5H135.58L135.92 79.65L136.05 79.7L136.4 79.85L136.54 79.91L136.93 80.06L137.07 80.12L137.51 80.29L137.64 80.34L138.17 80.53H138.24C138.907 80.7567 139.597 80.9867 140.31 81.22H140.41L141.05 81.41H141.22L141.82 81.58L142.03 81.64L142.62 81.8L142.86 81.86L143.47 82.01L143.7 82.07L144.36 82.22H144.58L145.36 82.39H145.47C146.08 82.51 146.72 82.63 147.36 82.73H147.62L148.33 82.84H148.67L149.32 82.92H149.7L150.33 82.99H150.74L151.37 83.05H151.79H152.45H152.86H153.58H155.05C156.955 83.0492 158.859 82.9323 160.75 82.7C174.33 79.13 184.18 67.37 186.15 56.5C187.85 47.07 183.83 39.25 175.05 34.63C168.49 31.9 161.37 32.03 150.62 35.8C147.854 37.0138 144.963 37.9225 142 38.51C141.965 39.1114 141.805 39.6989 141.53 40.2346C141.254 40.7702 140.869 41.2422 140.4 41.62C140.871 40.6943 141.072 39.6546 140.98 38.62H140.04C138.987 38.6257 137.936 38.5082 136.91 38.27C136.583 38.967 136.106 39.5831 135.513 40.0741C134.92 40.5651 134.226 40.9188 133.48 41.11C134.514 40.2906 135.282 39.1844 135.69 37.93C134.427 37.5068 133.266 36.8258 132.28 35.93C131.499 36.3443 130.637 36.5831 129.755 36.6298C128.872 36.6764 127.99 36.5297 127.17 36.2C128.646 36.1458 130.076 35.6704 131.29 34.83C130.535 33.8213 129.997 32.667 129.71 31.44C128.786 31.4607 127.87 31.2717 127.03 30.8872C126.19 30.5026 125.448 29.9326 124.86 29.22C126.285 29.9313 127.895 30.1862 129.47 29.95C129.455 29.6735 129.455 29.3964 129.47 29.12C129.449 28.2857 129.513 27.4515 129.66 26.63C128.944 26.3212 128.305 25.8596 127.787 25.2774C127.268 24.6952 126.884 24.0066 126.66 23.26C127.512 24.2517 128.629 24.9802 129.88 25.36C130.273 23.9608 130.84 22.6168 131.57 21.36C131.046 20.6303 130.725 19.7745 130.64 18.88C131.009 19.5207 131.482 20.0953 132.04 20.58C132.817 19.3642 133.73 18.2403 134.76 17.23C137.794 14.2718 141.611 12.2422 145.76 11.38C145.519 9.29233 145.953 7.18227 147 5.35999C138.383 6.75076 130.546 11.173 124.9 17.83C124.32 18.56 123.76 19.31 123.23 20.08C118.1 27.59 117.1 35.26 120.47 41.13L120.54 41.19ZM134.78 101.37L135.2 103.27C139.08 104.91 142.78 110.15 142.87 111.39L131.48 108.39C129.28 105.344 126.817 102.496 124.12 99.88C120.93 97.08 108 97.2 108 97.2C108.897 96.0824 110.104 95.2545 111.47 94.82C113.87 93.99 129.09 96.82 134.22 98.13L133.02 97.74L132.43 97.54L131.78 97.31L131.18 97.1L130.63 96.89L130.04 96.67L129.55 96.48L128.99 96.26L128.64 96.12L127.64 95.68L127.26 95.52L126.79 95.32L126.46 95.16C126.304 95.1159 126.15 95.0624 126 95C125.897 94.9594 125.797 94.9126 125.7 94.86L125.34 94.69L125.06 94.56L124.56 94.32L124.33 94.2L124.13 94.1L124 94L123.85 93.92L123.7 93.84H123.63L123.51 93.78L123.41 93.72C123.192 93.9959 122.906 94.2095 122.579 94.3394C122.253 94.4694 121.898 94.5109 121.55 94.46C121.47 94.46 108.73 90.56 106.36 89.73C103.81 88.73 103.5 85.52 105.89 81.88L106.7 83.6C105.63 86.49 108.7 87.87 108.7 87.87C108.7 87.87 120.54 92.19 121.2 92.42L121.72 92.61C121.72 92.61 121.97 92.61 122.19 92.55L122.27 91.82C122.584 89.0074 123.59 86.3165 125.199 83.9883C126.808 81.6602 128.97 79.7676 131.49 78.48L131.7 78.4L132.04 78.24C132.013 78.0014 131.959 77.7667 131.88 77.54C131.834 77.4165 131.774 77.299 131.7 77.19L131.58 77.04L131.47 76.93L131.36 76.85H131.3L131.07 76.7L130.58 76.39L128.52 75L124 72.14L119.52 69.31L119.38 69.22H119.29C119.233 69.184 119.173 69.1539 119.11 69.13C118.97 69.0729 118.827 69.0261 118.68 68.99C118.488 68.9495 118.295 68.9194 118.1 68.9C113.46 68.75 109.76 76.26 109.76 76.26L109.12 74.37C108.12 70.6 100.54 68.66 98.23 69.07C95.92 69.48 90.44 75.77 90.44 75.77L86.57 73.77C86.57 73.77 91.47 69.42 96.35 67.7C96.35 67.7 99.35 62.43 101.78 62.24L97.07 59L100.07 58.46C106.57 61.87 114.28 63.68 117.61 63.85L125.16 55.53L105.92 49.9C103.28 50.37 85.41 53.68 78.63 59.58L77.98 60.16L77.15 59.89C77.08 59.89 70.45 57.73 62.81 55.63C55.81 53.72 49.35 55.33 39.68 61.37C30.36 67.19 12 84.05 8.21002 87.4C6.76913 88.5833 5.72272 90.1773 5.21002 91.97L41.21 134.2C52.29 128.83 65.91 127.8 80.72 131.2C85.5976 132.358 90.3732 133.91 95 135.84L91.81 128.5C90.74 127.63 89.72 126.76 88.7 125.87C87.5134 124.83 86.3334 123.77 85.16 122.69C82.8267 120.543 80.5734 118.313 78.4 116C76.2026 113.675 74.1297 111.234 72.19 108.69C71.19 107.39 70.3 106.07 69.44 104.69C68.5683 103.282 67.8029 101.812 67.15 100.29C66.3505 98.674 65.7945 96.9487 65.5 95.17C65.2978 93.9054 65.3522 92.6131 65.66 91.37C65.81 89.8 72.91 69.78 72.91 69.78L74.64 71.55L74.32 72.8L72 81.85L69.64 90.91L69.35 92V92.17V92.28L69.29 92.5C69.29 92.65 69.29 92.8 69.22 92.95C69.1404 93.5775 69.1404 94.2125 69.22 94.84C69.4432 96.2064 69.8714 97.5313 70.49 98.77C71.8546 101.416 73.5334 103.887 75.49 106.13C77.4467 108.462 79.5298 110.686 81.73 112.79C83.93 114.92 86.22 116.96 88.56 118.94C89.7334 119.927 90.92 120.903 92.12 121.87C93.31 122.87 94.55 123.77 95.74 124.65L96.15 125.04C96.3952 125.285 96.5681 125.593 96.65 125.93L99.27 137C114.67 139.15 127.99 122.66 138.5 121.32C142.08 120.82 140.65 115.05 140.9 114.32C140.96 114.15 141.59 114.04 142.28 113.79C142.785 113.673 143.252 113.428 143.634 113.077C144.016 112.727 144.3 112.283 144.46 111.79C144.77 110.51 143.27 106.25 134.78 101.34V101.37ZM166.78 99.24C162.347 100.578 157.74 101.252 153.11 101.24C149.442 101.227 145.782 100.872 142.18 100.18C150.29 102.474 158.672 103.665 167.1 103.72C175.184 103.853 183.216 102.399 190.74 99.44C195.624 97.4318 200.113 94.5743 204 91C192.22 99.22 178.54 100.46 166.76 99.21L166.78 99.24Z" fill="#B1B1B1"/>
<path d="M66.16 123.79C62.63 122.47 49.89 121.6 43.68 124.61L33.68 117.45L32.18 117.23L42.72 129.16L43.72 128.66C51.6 124.51 60.31 124.26 67.82 125.38L66.16 123.79Z" fill="#9C182F"/>
<path d="M41.6 63.91C37.48 66.49 13.47 87.76 13.23 87.91C11.6997 88.9926 10.6296 90.6085 10.23 92.44L27.66 112.5L27.93 110.14L14.12 91.83C14.12 91.83 13.43 91.22 15.69 89.83C51.8 66.15 62.62 74.18 63.38 74.21L56.76 78.75C55 82.28 62.38 94.1 62.38 94.1C61.2 88.57 71.3 68.1 71.3 68.1C71.3 68.1 64.69 61 58.87 59.88C53.05 58.76 49.8 58.79 41.6 63.91Z" fill="#9C182F"/>
<path d="M66.16 123.79C62.63 122.47 50.5 119.33 44.3 122.34L33.72 117.45L43.72 124.61C49.89 121.6 62.63 122.47 66.16 123.79Z" fill="white"/>
<path d="M108 100.64C116.13 100.64 121 101.9 123.11 103.64C125.22 105.38 127.51 109.57 127.51 109.57C125.776 107.771 123.915 106.1 121.94 104.57C119.85 103.21 115.91 101.9 108 100.64Z" fill="white"/>
<path d="M19.17 89.22C35 78.83 45.3 74.66 51.94 73.25C44.58 74.39 33.06 78.45 15.69 89.85C13.43 91.22 14.12 91.85 14.12 91.85L27.89 110.18L16.61 91.52C16.61 91.52 16.91 90.59 19.17 89.22Z" fill="white"/>
<path d="M43.49 66.15C41.62 67.42 35.81 71.66 31.4 74.89C36.26 71.89 41.19 68.96 43.08 67.89C51.41 63.18 54.62 63.26 60.32 64.65C61.8551 65.08 63.3105 65.7554 64.63 66.65C62.63 65.05 59.63 62.93 56.82 62.5C52.25 61.74 49.72 61.89 43.49 66.15Z" fill="white"/>
<path d="M190.17 56.48C190.054 54.8248 189.817 53.1804 189.46 51.56C189.138 49.9358 188.568 48.3708 187.77 46.92C187.991 47.5079 188.129 48.1239 188.18 48.75C188.25 49.38 188.28 50 188.29 50.63C188.307 51.8853 188.253 53.1406 188.13 54.39C187.885 56.8803 187.416 59.3436 186.73 61.75C186.051 64.1445 185.137 66.4658 184 68.68C182.871 70.8702 181.484 72.918 179.87 74.78C178.502 76.3609 176.955 77.7771 175.26 79C177.442 77.9307 179.541 76.7006 181.54 75.32C182.946 73.4318 184.143 71.3965 185.11 69.25C186.16 66.9214 186.971 64.4923 187.53 62C188.091 59.5222 188.426 56.9984 188.53 54.46C188.605 53.1944 188.605 51.9255 188.53 50.66C188.48 50.03 188.42 49.4 188.31 48.78C188.226 48.1524 188.055 47.5397 187.8 46.96C188.518 48.44 189.004 50.0219 189.24 51.65C189.515 53.2661 189.665 54.9009 189.69 56.54C189.748 59.8066 189.364 63.066 188.55 66.23C188.11 67.9397 187.535 69.6116 186.83 71.23C187.49 70.65 188.15 70.06 188.83 69.44C189.12 68.44 189.37 67.44 189.58 66.44C190.221 63.1613 190.42 59.8114 190.17 56.48Z" fill="#B1B1B1"/>
<path d="M147.88 58.41C146.34 58.35 145.21 58.26 145.07 58.25C144.59 58.25 144.07 58.16 143.49 58.09C142.417 58.9326 141.532 59.9909 140.893 61.1966C140.254 62.4023 139.875 63.7287 139.78 65.09C139.332 63.8798 139.208 62.574 139.418 61.301C139.629 60.028 140.167 58.8317 140.98 57.83C139.77 57.72 138.56 57.6 137.38 57.46C135.583 58.5426 134.283 60.2879 133.76 62.32C133.591 61.4126 133.638 60.4783 133.897 59.5924C134.156 58.7065 134.619 57.8939 135.25 57.22C132.82 56.92 130.61 56.59 128.88 56.22C125.57 57.74 122.88 61.6 121.35 64.34C133.62 66.04 142.21 66.01 148.15 64.99C147.587 63.9929 147.269 62.8765 147.222 61.7325C147.175 60.5885 147.401 59.4498 147.88 58.41Z" fill="white"/>
<path d="M155.49 58.41C155.834 59.5711 156.364 60.6687 157.06 61.66C158.316 60.7635 159.31 59.5484 159.94 58.14C159.303 57.8987 158.69 57.5973 158.11 57.24C157.401 57.9248 156.473 58.3388 155.49 58.41Z" fill="white"/>
<path d="M105.92 49.9C103.28 50.37 85.41 53.68 78.63 59.58L77.98 60.16L77.15 59.89C77.08 59.89 70.45 57.73 62.81 55.63C56.59 53.92 50.74 55.03 42.68 59.63C47.6285 57.0187 53.2536 55.9725 58.81 56.63C65.81 57.37 74.93 64.19 76.81 65.34L77.36 68.5L81.36 70.95C81.36 70.95 80.83 66.69 83.36 64.37C83.36 64.37 95.96 58.68 97.02 58.95L100.02 58.41C104.93 60.9196 110.194 62.6663 115.63 63.59L117.56 63.8L125.11 55.48L105.92 49.9Z" fill="white"/>
<path d="M150.18 58.45H150.05C148.947 60.4128 148.489 62.6726 148.74 64.91C151.216 64.5009 153.606 63.6795 155.81 62.48C154.68 61.3456 153.807 59.9814 153.25 58.48C152.35 58.51 151.32 58.49 150.18 58.45Z" fill="white"/>
<path d="M159.48 50.52C159.774 52.2673 159.633 54.0601 159.07 55.74C159.488 56.0853 159.932 56.3963 160.4 56.67C160.777 54.5746 160.454 52.4133 159.48 50.52Z" fill="white"/>
<path d="M109.16 74.32C111.38 70 99.58 67 99.58 67C93.93 67.24 86.58 73.74 86.58 73.74L90.45 75.74C90.45 75.74 96 69.43 98.27 69C100.54 68.57 108.19 70.55 109.16 74.32Z" fill="white"/>
<path d="M131.91 77.47C131.864 77.3465 131.804 77.229 131.73 77.12L131.61 76.97L131.5 76.86L131.39 76.78H131.33L131.1 76.63L130.61 76.32L128.52 75L124 72.14L119.52 69.31L119.38 69.22H119.29C119.233 69.184 119.173 69.1539 119.11 69.13C118.97 69.0729 118.827 69.0261 118.68 68.99C118.488 68.9495 118.295 68.9194 118.1 68.9C113.46 68.75 109.76 76.26 109.76 76.26C109.76 76.26 119.03 82.96 124.25 85.51C125.882 82.488 128.407 80.0433 131.48 78.51L131.69 78.43L132.03 78.27C132.024 77.9993 131.983 77.7306 131.91 77.47Z" fill="white"/>
<path d="M140 38.62C139.196 38.6213 138.393 38.5544 137.6 38.42C138.686 38.8273 139.807 39.132 140.95 39.33C140.965 39.0835 140.965 38.8364 140.95 38.59L140 38.62ZM175.08 35.2C168.52 32.47 161.4 32.6 150.65 36.37C147.852 37.3911 144.952 38.1085 142 38.51C141.972 38.8278 141.915 39.1424 141.83 39.45C144.481 39.671 147.15 39.4992 149.75 38.94C158.68 37.24 168.75 36.94 175 40.94C182 46.34 186.14 54.03 184.92 61.76C185.49 60.255 185.925 58.7022 186.22 57.12C187.89 47.64 183.87 39.82 175.09 35.2H175.08Z" fill="white"/>
<path d="M145.85 8.64999C146.047 7.49672 146.435 6.38462 147 5.35999C138.383 6.75076 130.546 11.173 124.9 17.83C124.32 18.56 123.76 19.31 123.23 20.08C122.7 20.85 122.42 21.33 122.05 21.96C122.78 21.13 124.42 19.49 125.05 18.87C130.71 13.3238 138.001 9.74136 145.85 8.64999Z" fill="white"/>
<path d="M152.17 15.13C151.213 13.69 150.553 12.0736 150.229 10.3754C149.904 8.67721 149.922 6.93135 150.28 5.23999C149.545 6.54301 149.098 7.98884 148.971 9.47952C148.843 10.9702 149.037 12.4709 149.54 13.88L152.17 15.13Z" fill="#B1B1B1"/>
<path d="M125.93 134.72C125.93 134.72 146.07 126.45 154.87 130.86L156.09 110.86L153.32 128.97C143.86 126.4 125.93 134.72 125.93 134.72Z" fill="#B1B1B1"/>
<path d="M155.09 86.73C147.343 86.7296 139.694 85.0009 132.7 81.67C130.387 83.009 128.513 84.9932 127.31 87.38C140.31 94.09 171.01 104.69 192.8 71.55C193.39 70.38 193.96 69.18 194.51 67.94C185.55 77.69 172.55 86.73 155.09 86.73Z" fill="white"/>
<path d="M178.83 94.28H177.37C174.082 96.4153 170.511 98.0782 166.76 99.22C178.54 100.47 192.22 99.22 203.96 91.03C204.96 90.13 205.91 89.19 206.82 88.19C198.069 92.3057 188.5 94.3877 178.83 94.28Z" fill="white"/>
<path d="M105.73 64.35C105.555 64.7131 105.463 65.111 105.462 65.5143C105.461 65.9175 105.551 66.3159 105.725 66.6798C105.898 67.0437 106.152 67.3639 106.466 67.6166C106.78 67.8694 107.147 68.0482 107.54 68.14C108.411 68.4955 109.353 68.6391 110.29 68.5592C111.227 68.4792 112.132 68.1779 112.93 67.68C110.456 66.7381 108.05 65.6254 105.73 64.35Z" fill="white"/>
</svg>
